# xmcd CD database file
#
# Track frame offsets:
#	150
#	24727
#	48044
#	66139
#	84485
#	107235
#	127537
#	151972
#	172176
#	188503
#	205233
#	223169
#
# Disc length: 3238 seconds
#
# Revision: 0
# Processed by: cddbd v1.5.1PL0 Copyright (c) Steve Scherf et al.
# Submitted via: CDex 1.51
#
DISCID=9d0ca40c
DTITLE=Varios - Coleccion De Oro De La Salsa disco1
DYEAR=2003
DGENRE=Salsa
TTITLE0=Si Me Ves Llorar-David Pabon
TTITLE1=Seda-Willie Gonzalez
TTITLE2=Desde El Fondo De Mi Corazon-Hildemaro
TTITLE3=Hechicera-Oscar D'leon
TTITLE4=Piensa En Mi-Naty su orquestra
TTITLE5=Sentir Enamorada(prueba de amor) - Silvana
TTITLE6=Gitana-Willi Colon
TTITLE7=Vestida De Blanco-German Carreno
TTITLE8=Enamorado Y Que-Morist Jimenez
TTITLE9=Y Tu No Estas-Juan Carlos Coronel
TTITLE10=Te Voy A Ensenar-Grupo Gale
TTITLE11=Que Canonazos-alquima la sonora del XXI
EXTD=YEAR: 2003
EXTT0=
EXTT1=
EXTT2=
EXTT3=
EXTT4=
EXTT5=
EXTT6=
EXTT7=
EXTT8=
EXTT9=
EXTT10=
EXTT11=
PLAYORDER=
